<svg width="341" height="92" viewBox="0 0 341 92" fill="none" xmlns="http://www.w3.org/2000/svg">
<rect x="4.5" y="4.5" width="332" height="83" rx="34.5" fill="#FAFF00" stroke="black" stroke-width="9"/>
<path d="M42.25 56C41.9583 56 41.7083 55.9167 41.5 55.75C41.3333 55.5417 41.25 55.2917 41.25 55V41C41.25 40.75 41.1458 40.5208 40.9375 40.3125C40.7292 40.1042 40.5 40 40.25 40H38.25C37.9583 40 37.7083 39.9167 37.5 39.75C37.3333 39.5417 37.25 39.2917 37.25 39V25C37.25 24.75 37.3333 24.5208 37.5 24.3125C37.7083 24.1042 37.9583 24 38.25 24H56.25C56.5 24 56.7292 24.1042 56.9375 24.3125C57.1458 24.5208 57.25 24.75 57.25 25V39C57.25 39.2917 57.1458 39.5417 56.9375 39.75C56.7292 39.9167 56.5 40 56.25 40H54.25C53.9583 40 53.7083 40.1042 53.5 40.3125C53.3333 40.5208 53.25 40.75 53.25 41V55C53.25 55.2917 53.1458 55.5417 52.9375 55.75C52.7292 55.9167 52.5 56 52.25 56H42.25ZM78 52C78.25 52 78.4792 51.9167 78.6875 51.75C78.8958 51.5417 79 51.2917 79 51V37C79 36.75 78.8958 36.5208 78.6875 36.3125C78.4792 36.1042 78.25 36 78 36H76C75.7083 36 75.4583 36.1042 75.25 36.3125C75.0833 36.5208 75 36.75 75 37V51C75 51.2917 75.0833 51.5417 75.25 51.75C75.4583 51.9167 75.7083 52 76 52H78ZM64 56C63.7083 56 63.4583 55.9167 63.25 55.75C63.0833 55.5417 63 55.2917 63 55V33C63 32.75 63.0833 32.5208 63.25 32.3125C63.4583 32.1042 63.7083 32 64 32H82C82.25 32 82.4792 32.1042 82.6875 32.3125C82.8958 32.5208 83 32.75 83 33V55C83 55.2917 82.8958 55.5417 82.6875 55.75C82.4792 55.9167 82.25 56 82 56H64ZM103.75 52C104 52 104.229 51.9167 104.438 51.75C104.646 51.5417 104.75 51.2917 104.75 51V37C104.75 36.75 104.646 36.5208 104.438 36.3125C104.229 36.1042 104 36 103.75 36H101.75C101.458 36 101.208 36.1042 101 36.3125C100.833 36.5208 100.75 36.75 100.75 37V51C100.75 51.2917 100.833 51.5417 101 51.75C101.208 51.9167 101.458 52 101.75 52H103.75ZM89.75 68C89.4583 68 89.2083 67.8958 89 67.6875C88.8333 67.4792 88.75 67.25 88.75 67V33C88.75 32.75 88.8333 32.5208 89 32.3125C89.2083 32.1042 89.4583 32 89.75 32H107.75C108 32 108.229 32.1042 108.438 32.3125C108.646 32.5208 108.75 32.75 108.75 33V55C108.75 55.2917 108.646 55.5417 108.438 55.75C108.229 55.9167 108 56 107.75 56H101.75C101.458 56 101.208 56.0833 101 56.25C100.833 56.4583 100.75 56.7083 100.75 57V67C100.75 67.25 100.646 67.4792 100.438 67.6875C100.229 67.8958 100 68 99.75 68H89.75ZM115.5 44C115.208 44 114.958 43.9167 114.75 43.75C114.583 43.5417 114.5 43.2917 114.5 43V37C114.5 36.75 114.583 36.5208 114.75 36.3125C114.958 36.1042 115.208 36 115.5 36H133.5C133.75 36 133.979 36.1042 134.188 36.3125C134.396 36.5208 134.5 36.75 134.5 37V43C134.5 43.2917 134.396 43.5417 134.188 43.75C133.979 43.9167 133.75 44 133.5 44H115.5ZM141.25 56C140.958 56 140.708 55.9167 140.5 55.75C140.333 55.5417 140.25 55.2917 140.25 55V33C140.25 32.75 140.333 32.5208 140.5 32.3125C140.708 32.1042 140.958 32 141.25 32H147.25C147.5 32 147.729 32.1042 147.938 32.3125C148.146 32.5208 148.25 32.75 148.25 33V45C148.25 45.2917 148.333 45.5417 148.5 45.75C148.708 45.9167 148.958 46 149.25 46H151.25C151.5 46 151.729 45.9167 151.938 45.75C152.146 45.5417 152.25 45.2917 152.25 45V33C152.25 32.75 152.333 32.5208 152.5 32.3125C152.708 32.1042 152.958 32 153.25 32H159.25C159.5 32 159.729 32.1042 159.938 32.3125C160.146 32.5208 160.25 32.75 160.25 33V55C160.25 55.2917 160.146 55.5417 159.938 55.75C159.729 55.9167 159.5 56 159.25 56H141.25ZM181 52C181.25 52 181.479 51.9167 181.688 51.75C181.896 51.5417 182 51.2917 182 51V37C182 36.75 181.896 36.5208 181.688 36.3125C181.479 36.1042 181.25 36 181 36H179C178.708 36 178.458 36.1042 178.25 36.3125C178.083 36.5208 178 36.75 178 37V51C178 51.2917 178.083 51.5417 178.25 51.75C178.458 51.9167 178.708 52 179 52H181ZM167 68C166.708 68 166.458 67.8958 166.25 67.6875C166.083 67.4792 166 67.25 166 67V33C166 32.75 166.083 32.5208 166.25 32.3125C166.458 32.1042 166.708 32 167 32H185C185.25 32 185.479 32.1042 185.688 32.3125C185.896 32.5208 186 32.75 186 33V55C186 55.2917 185.896 55.5417 185.688 55.75C185.479 55.9167 185.25 56 185 56H179C178.708 56 178.458 56.0833 178.25 56.25C178.083 56.4583 178 56.7083 178 57V67C178 67.25 177.896 67.4792 177.688 67.6875C177.479 67.8958 177.25 68 177 68H167ZM202.75 56C202.458 56 202.208 55.9167 202 55.75C201.833 55.5417 201.75 55.2917 201.75 55V25C201.75 24.75 201.833 24.5208 202 24.3125C202.208 24.1042 202.458 24 202.75 24H208.75C209 24 209.229 24.1042 209.438 24.3125C209.646 24.5208 209.75 24.75 209.75 25V39C209.75 39.2917 209.833 39.5417 210 39.75C210.208 39.9167 210.458 40 210.75 40H212.75C213 40 213.229 39.9167 213.438 39.75C213.646 39.5417 213.75 39.2917 213.75 39V25C213.75 24.75 213.833 24.5208 214 24.3125C214.208 24.1042 214.458 24 214.75 24H220.75C221 24 221.229 24.1042 221.438 24.3125C221.646 24.5208 221.75 24.75 221.75 25V55C221.75 55.2917 221.646 55.5417 221.438 55.75C221.229 55.9167 221 56 220.75 56H214.75C214.458 56 214.208 55.9167 214 55.75C213.833 55.5417 213.75 55.2917 213.75 55V49C213.75 48.75 213.646 48.5208 213.438 48.3125C213.229 48.1042 213 48 212.75 48H210.75C210.458 48 210.208 48.1042 210 48.3125C209.833 48.5208 209.75 48.75 209.75 49V55C209.75 55.2917 209.646 55.5417 209.438 55.75C209.229 55.9167 209 56 208.75 56H202.75ZM242.5 44C242.75 44 242.979 43.9167 243.188 43.75C243.396 43.5417 243.5 43.2917 243.5 43V37C243.5 36.75 243.396 36.5208 243.188 36.3125C242.979 36.1042 242.75 36 242.5 36H240.5C240.208 36 239.958 36.1042 239.75 36.3125C239.583 36.5208 239.5 36.75 239.5 37V43C239.5 43.2917 239.583 43.5417 239.75 43.75C239.958 43.9167 240.208 44 240.5 44H242.5ZM228.5 56C228.208 56 227.958 55.9167 227.75 55.75C227.583 55.5417 227.5 55.2917 227.5 55V33C227.5 32.75 227.583 32.5208 227.75 32.3125C227.958 32.1042 228.208 32 228.5 32H246.5C246.75 32 246.979 32.1042 247.188 32.3125C247.396 32.5208 247.5 32.75 247.5 33V47C247.5 47.2917 247.396 47.5417 247.188 47.75C246.979 47.9167 246.75 48 246.5 48H240.5C240.208 48 239.958 48.1042 239.75 48.3125C239.583 48.5208 239.5 48.75 239.5 49V51C239.5 51.2917 239.583 51.5417 239.75 51.75C239.958 51.9167 240.208 52 240.5 52H246.5C246.75 52 246.979 52.1042 247.188 52.3125C247.396 52.5208 247.5 52.75 247.5 53V55C247.5 55.2917 247.396 55.5417 247.188 55.75C246.979 55.9167 246.75 56 246.5 56H228.5ZM254.25 56C253.958 56 253.708 55.9167 253.5 55.75C253.333 55.5417 253.25 55.2917 253.25 55V33C253.25 32.75 253.333 32.5208 253.5 32.3125C253.708 32.1042 253.958 32 254.25 32H260.25C260.5 32 260.729 32.1042 260.938 32.3125C261.146 32.5208 261.25 32.75 261.25 33V36L265.25 32H270.25C270.5 32 270.729 32.1042 270.938 32.3125C271.146 32.5208 271.25 32.75 271.25 33V35C271.25 35.2917 271.146 35.5417 270.938 35.75C270.729 35.9167 270.5 36 270.25 36H267.25L263.25 40V55C263.25 55.2917 263.146 55.5417 262.938 55.75C262.729 55.9167 262.5 56 262.25 56H254.25ZM292 44C292.25 44 292.479 43.9167 292.688 43.75C292.896 43.5417 293 43.2917 293 43V37C293 36.75 292.896 36.5208 292.688 36.3125C292.479 36.1042 292.25 36 292 36H290C289.708 36 289.458 36.1042 289.25 36.3125C289.083 36.5208 289 36.75 289 37V43C289 43.2917 289.083 43.5417 289.25 43.75C289.458 43.9167 289.708 44 290 44H292ZM278 56C277.708 56 277.458 55.9167 277.25 55.75C277.083 55.5417 277 55.2917 277 55V33C277 32.75 277.083 32.5208 277.25 32.3125C277.458 32.1042 277.708 32 278 32H296C296.25 32 296.479 32.1042 296.688 32.3125C296.896 32.5208 297 32.75 297 33V47C297 47.2917 296.896 47.5417 296.688 47.75C296.479 47.9167 296.25 48 296 48H290C289.708 48 289.458 48.1042 289.25 48.3125C289.083 48.5208 289 48.75 289 49V51C289 51.2917 289.083 51.5417 289.25 51.75C289.458 51.9167 289.708 52 290 52H296C296.25 52 296.479 52.1042 296.688 52.3125C296.896 52.5208 297 52.75 297 53V55C297 55.2917 296.896 55.5417 296.688 55.75C296.479 55.9167 296.25 56 296 56H278Z" fill="#FF0000"/>
</svg>
